# xmcd
#
# Track frame offsets: 
#        150
#        15352
#        25581
#        39569
#        52419
#        67919
#        84602
#        99645
#        120303
#        139192
#        154973
#        175157
#
# Disc length: 2595 seconds
#
# Revision: 0
# Processed by: cddbd v1.5.2PL0 Copyright (c) Steve Scherf et al.
# Submitted via: ExactAudioCopyFreeDBPlugin 1.0
#
DISCID=960a210c
DTITLE=David Kroll - David Kroll and Heartland
DYEAR=2006
DGENRE=Country
TTITLE0=Blue Jeans
TTITLE1=Heartland
TTITLE2=Loco
TTITLE3=Just Call Me Lonesome
TTITLE4=Nobody but Me
TTITLE5=Awful Beautiful Life
TTITLE6=Hillbillies
TTITLE7=Inside Out
TTITLE8=Better Life
TTITLE9=Mud On The Tires
TTITLE10=How Am I Doin'
TTITLE11=Party For Two
EXTD=
EXTT0=
EXTT1=
EXTT2=
EXTT3=
EXTT4=
EXTT5=
EXTT6=
EXTT7=
EXTT8=
EXTT9=
EXTT10=
EXTT11=
PLAYORDER=
